<?xml version="1.0" encoding="UTF-8"?>
<svg version="1.1" viewBox="0 0 1600 1600" width="1280" height="1280" xmlns="http://www.w3.org/2000/svg">
<path transform="translate(771 495)" d="m0 0c1.3 0.00304 1.3 0.00304 2.63 0.00613 0.884-9.57e-4 1.77-0.00191 2.68-0.0029 1.87-6.82e-4 3.75 0.00117 5.62 0.00534 2.88 0.00535 5.75 5.52e-5 8.63-0.00635 1.82 6.61e-4 3.63 0.00194 5.45 0.00391 0.867-0.00202 1.73-0.00405 2.63-0.00613 6.07 0.024 6.07 0.024 7.19 1.14 2.75 0.543 5.49 1.04 8.25 1.5 1.53 0.26 3.05 0.52 4.58 0.781 1.09 0.186 1.09 0.186 2.19 0.375 3.43 0.596 6.67 1.24 9.98 2.34 1.69 0.559 1.69 0.559 3.41 1.13 10.6 3.57 20.6 7.93 30.6 12.9v2c0.861 0.236 1.72 0.472 2.61 0.715 3.81 1.44 6.44 3.34 9.64 5.85 3.71 2.99 3.71 2.99 7.75 5.44v2c0.583 0.266 1.17 0.531 1.77 0.805 15.9 8.49 27.7 27 36.2 42.2 0.791 1.19 1.58 2.38 2.38 3.56 3.64 5.77 6.05 12.1 8.62 18.4 0.373 0.869 0.745 1.74 1.13 2.63 12 28.5 13.9 64.4 6.87 94.4-0.22 0.948-0.44 1.9-0.667 2.87-2.39 10.1-4.82 19.8-9.33 29.1-0.29 0.616-0.579 1.23-0.878 1.87-3.52 7.43-7.35 14.4-12.1 21.1-0.532 0.786-1.06 1.57-1.61 2.38-4.41 6.47-9.04 12.9-14.4 18.6h-2c-0.268 0.639-0.536 1.28-0.812 1.94-1.19 2.06-1.19 2.06-4.19 3.06-0.25 0.563-0.5 1.13-0.758 1.71-1.92 3.54-4.96 5.55-8.12 7.98-0.938 0.747-0.938 0.747-1.89 1.51-3.08 2.4-5.34 4.04-9.23 4.8v2c-8.32 5.68-17.6 10.3-27 14-0.83 0.379-1.66 0.758-2.52 1.15-8 3.59-16 5.57-24.6 7.4-1.75 0.414-3.48 0.954-5.19 1.51-10.8 2.73-22.3 2.15-33.3 2.14-0.795-2.72e-4 -1.59-5.44e-4 -2.41-8.24e-4 -9.09-0.0143-18.2-0.0595-27.2-0.999-1.04-0.105-1.04-0.105-2.09-0.212-5.17-0.649-9.85-2.23-14.7-3.98-1.46-0.491-2.91-0.982-4.37-1.47-11.2-3.91-21.6-8.84-32-14.6-1.21-0.666-2.43-1.3-3.67-1.92v-2c-1.31-0.356-1.31-0.356-2.64-0.719-3.72-1.42-6.03-3.19-9.04-5.78-2.73-2.32-5.33-4.51-8.31-6.5v-2c-0.594-0.28-1.19-0.559-1.8-0.848-7.75-4.06-12.9-11.4-18.2-18.2-0.422-0.541-0.844-1.08-1.28-1.64-7.72-9.94-7.72-9.94-7.72-12.4h-2c-5.09-8.12-9.19-16.4-12.8-25.2-0.372-0.91-0.745-1.82-1.13-2.76-3.14-7.85-5.85-15.8-7.25-24.1-0.159-0.931-0.317-1.86-0.48-2.82-0.11-0.678-0.219-1.36-0.332-2.05h-1c-5.27-51.7-5.27-51.7 3-72 0.486-1.89 0.943-3.79 1.38-5.69 2.3-9.38 6.16-17.8 10.6-26.3 0.464-0.898 0.928-1.8 1.41-2.72 2.89-5.47 6.05-10.6 9.67-15.6 1.43-1.99 2.82-3.99 4.2-6.02 0.391-0.576 0.782-1.15 1.18-1.74 1.11-1.64 2.22-3.29 3.34-4.94 2.2-2.96 4.57-5.42 7.21-7.98 0.681-0.887 1.36-1.77 2.06-2.69 1.94-2.31 1.94-2.31 3.88-3.25 2.31-1.2 3.35-2.39 4.93-4.44 2.72-3.29 5.45-5.39 9.12-7.62 1.44-0.953 2.88-1.91 4.31-2.88 1.56-1.04 3.12-2.08 4.69-3.12 0.631-0.445 1.26-0.891 1.91-1.35 5.76-3.99 11.7-7 18.1-9.84 0.933-0.425 1.87-0.849 2.83-1.29 5.63-2.53 11.3-4.7 17.2-6.53 0.896-0.29 1.79-0.58 2.71-0.879 8.37-2.58 16.6-4.21 25.4-4.88 3.12-0.397 5.59-1.37 9.12-1.39zm-21.5 67.8c-0.827 0.358-1.65 0.717-2.51 1.09-10.3 4.55-19.5 10.1-28.2 17.3-0.665 0.519-1.33 1.04-2.02 1.57-11.8 9.56-19.8 23.8-26 37.4-0.361 0.782-0.722 1.56-1.09 2.37-8.69 21.1-8.34 47.8-0.844 69.1 6.73 16.1 19 37.4 35.7 44.7 0.74 0.26 1.48 0.521 2.24 0.789v2c2.35 1.27 4.71 2.54 7.06 3.81 0.657 0.356 1.31 0.713 1.99 1.08 5.59 3 11.2 5.96 17.4 7.17 2.62 0.514 5.05 1.12 7.6 1.95 4.23 1.21 8.27 1.27 12.6 1.25 0.817 0.00191 1.63 0.00383 2.48 0.0058 1.72 0.00135 3.44-0.00229 5.15-0.0107 2.61-0.0107 5.23-7.74e-5 7.84 0.0127 1.68-0.00132 3.35-0.00388 5.03-0.00781 1.16 0.00607 1.16 0.00607 2.34 0.0123 4.8-0.041 8.81-0.769 13.4-2.28 1.17-0.307 2.33-0.614 3.54-0.93 1.16-0.312 2.33-0.624 3.53-0.945 1.17-0.307 2.33-0.614 3.54-0.93 3.64-1.28 6.26-2.98 9.4-5.2 2.82-1.56 5.66-3.05 8.51-4.54 2.26-1.33 3.71-2.58 5.49-4.46 0.99-0.66 1.98-1.32 3-2v-2c0.571-0.247 1.14-0.495 1.73-0.75 7.87-4.34 13.6-12.8 18.3-20.2 1.02-1.65 1.02-1.65 2.07-3.34 4.97-8.43 7.46-16.6 9.24-26.2 0.691-3.51 0.691-3.51 1.69-4.51 1.09-6.6 1.18-13.1 1.19-19.8 0.0122-1.02 0.0245-2.03 0.0371-3.08 0.0183-9.6-1.61-18.5-4.22-27.7-0.33-1.19-0.66-2.38-1-3.6-0.687-2.9-0.687-2.9-3-3.77-0.641-1.71-0.641-1.71-1.25-3.94-3.26-10.2-9.93-18-16.8-26.1-0.652-0.844-1.3-1.69-1.98-2.56-12.7-15.3-34.7-25.3-54-27.4-4.56-0.212-9.1-0.248-13.7-0.206-2.04 0.0184-4.08 0.0205-6.12 0.0203-10.8 0.0478-19.6 0.414-29.5 4.81zm-125 58.4 1 2zm-1 5 1 2zm258 29 1 4zm-3 22 1 2z" fill="#0D66E4"/>
<path transform="translate(625 882)" d="m0 0c0.811 2.17e-4 1.62 4.35e-4 2.46 6.59e-4 0.935-0.0046 1.87-0.0092 2.83-0.0139 1.55 0.00772 1.55 0.00772 3.13 0.0156 1.09-0.00241 2.19-0.00483 3.31-0.00732 3.69-0.00567 7.38 0.00305 11.1 0.0116 2.63-0.00107 5.27-0.00301 7.9-0.00575 6.43-0.00505 12.9 6.12e-4 19.3 0.00985 7.49 0.0104 15 0.0103 22.5 0.00983 13.4-5.01e-4 26.7 0.00867 40.1 0.0232 13 0.0141 25.9 0.0212 38.9 0.0205 0.797-4e-5 1.59-7.99e-5 2.42-1.21e-4 0.796-4.04e-5 1.59-8.07e-5 2.41-1.22e-4 14.8-6.91e-4 29.5 0.00521 44.3 0.0142 5.22 0.00301 10.4 0.00408 15.6 0.00453 6.37 6.84e-4 12.7 0.00518 19.1 0.0143 3.25 0.0046 6.49 0.00714 9.74 0.00641 3.53-4.93e-4 7.05 0.00518 10.6 0.0124 1.02-0.00155 2.03-0.0031 3.08-0.00469 8.37 0.0283 16.4 0.229 24.3 3.14 1.75 0.442 3.5 0.879 5.25 1.31 22.8 6.2 42.7 25 54.6 44.9 2.53 4.53 4.49 8.9 6.12 13.8 0.518 1.33 1.04 2.67 1.56 4 2.36 6.33 3.63 12.5 4.19 19.2 0.0659 1.81 0.0659 1.81 1.25 2.79 0.0997 1.91 0.131 3.83 0.133 5.75 0.00129 1.17 0.00258 2.33 0.00391 3.53-0.00387 1.23-0.00773 2.45-0.0117 3.72 0.00387 1.23 0.00773 2.45 0.0117 3.72-0.00193 1.75-0.00193 1.75-0.00391 3.53-0.00113 1.08-0.00226 2.16-0.00342 3.27-0.129 2.48-0.129 2.48-1.13 3.48-0.327 2.33-0.611 4.66-0.875 7-0.741 6-1.94 11.4-4.12 17-0.287 0.859-0.575 1.72-0.871 2.6-2.34 6.9-5.48 13.1-9.13 19.4h-2c-0.227 0.681-0.454 1.36-0.688 2.06-6.57 14.7-23.1 25.8-37.5 31.9-1.31 0.5-2.63 0.977-3.96 1.43-1.83 0.636-3.6 1.42-5.36 2.21-8.96 3.35-23.1 5.2-32.5 3.44-2.51-2.02-3.84-3.24-4.51-6.43-0.0062-0.906-0.0124-1.81-0.0188-2.74-0.0158-1.03-0.0317-2.06-0.048-3.12 0.00744-1.66 0.00744-1.66 0.015-3.36-0.0062-1.14-0.0124-2.28-0.0188-3.46-0.0071-2.41-0.00392-4.82 0.00877-7.23 0.0139-3.7-0.0202-7.39-0.0583-11.1-9.51e-4 -2.34 9.07e-4 -4.68 0.00586-7.03-0.0133-1.11-0.0265-2.22-0.0402-3.36 0.0343-2.81 0.105-5.41 0.669-8.17 3.42-3.17 7.16-3.62 11.7-4.44 6.14-1.23 11.6-2.92 17.3-5.56 0.908-0.413 1.82-0.825 2.75-1.25 2.92-2.27 4.82-4.98 6.92-8.01 1.33-1.74 1.33-1.74 3.33-2.74 1.1-2.13 1.1-2.13 2.06-4.69 0.342-0.849 0.683-1.7 1.04-2.57 4.08-12.4 2.39-25.1-3.1-36.7-1.99-2.7-4.02-5.03-6.43-7.36-1.57-1.64-1.57-1.64-1.57-3.64-0.71-0.277-1.42-0.554-2.15-0.84-3.8-1.55-7.51-3.3-11.2-5.04-5.05-2.16-9.64-2.26-15.1-2.24-0.862-7.05e-4 -1.72-0.00141-2.61-0.00214-2.9-0.00131-5.79 0.00437-8.69 0.00987-2.07 2.42e-4 -4.15-3.51e-5 -6.22-7.93e-4 -4.47-0.00111-8.95 3.29e-4 -13.4 0.00337-7.09 0.00363-14.2-0.00551-21.3-0.0178-1.2-0.00202-2.4-0.00404-3.63-0.00613-2.45-0.00417-4.9-0.00837-7.35-0.0126-16.5-0.0281-33-0.0483-49.5-0.031-11.1 0.0116-22.3 0.00182-33.4-0.0321-5.89-0.0171-11.8-0.0236-17.7-0.00388-5.55 0.0184-11.1 0.00833-16.7-0.0223-2.02-0.00629-4.04-0.00269-6.06 0.0124-17.9 0.124-39.1-2.23-53.1-14.6-1.18-1.18-2.34-2.38-3.46-3.62-1.56-1.76-1.56-1.76-4.44-3.52v-2h-2c-8.76-9.47-13.1-21.2-14.2-33.9 0.212-2.93 1.18-3.99 4.11-4.36zm263 1.25 4 1z" fill="#0D66E4"/>
<path transform="translate(739 1030)" d="m0 0c0.98 0.0142 1.96 0.0284 2.97 0.043 0.98 0.00645 1.96 0.0129 2.97 0.0195 2.53 0.168 2.53 0.168 4.53 1.17v4c1.46-0.451 2.92-0.911 4.38-1.38 0.812-0.255 1.62-0.51 2.46-0.773 2.33-0.75 2.33-0.75 4.16-2.85 5.27-0.843 10.7-1.24 15.5 1.36 6.62 5.67 11 12.4 11.8 21.2 0.0885 8.46 0.0061 16.5-5.8 23.2-4.76 4.26-9.05 4.5-15.2 4.63-1.16 0.0374-2.32 0.0748-3.51 0.113-3.8-0.426-3.8-0.426-12.8-4.43-0.33 9.24-0.66 18.5-1 28h-13c-1.37-2.75-1.22-5.04-1.32-8.11-0.0421-1.29-0.0843-2.59-0.128-3.92-0.0402-1.43-0.0796-2.85-0.118-4.28-0.0205-0.717-0.041-1.43-0.0622-2.17-0.323-11.5-0.504-23-0.552-34.5-0.00751-1.65-0.0182-3.31-0.032-4.96-0.0177-2.32-0.022-4.64-0.0222-6.95-0.00714-0.694-0.0143-1.39-0.0216-2.1 0.0326-6.82 0.0326-6.82 4.78-7.26zm14.5 15.3c-2.94 4.32-4.16 7.89-3.75 13.1 0.95 3.61 0.95 3.61 2.75 6.81 2.02 0.652 2.02 0.652 4 1l1 2c6.4 0.646 6.4 0.646 11.9-2.25 3.13-4.17 4.36-6.48 4.06-11.8h-1c-0.182-0.626-0.364-1.25-0.551-1.9-0.251-0.817-0.503-1.63-0.762-2.48-0.244-0.812-0.487-1.62-0.738-2.46-0.863-2.5-0.863-2.5-3.95-4.16-4.97-0.8-8.8-0.824-13 2.06z" fill="#0C65E3"/>
<path transform="translate(822,1030)" d="m0 0v2c0.577 0.289 1.15 0.578 1.75 0.875 2.08 1.04 4.17 2.08 6.25 3.12l1-2c-0.66-0.33-1.32-0.66-2-1 1.15-1.48 1.15-1.48 3-3 2.63-0.328 2.63-0.328 5.56-0.25 1.46 0.0232 1.46 0.0232 2.94 0.0469 2.5 0.203 2.5 0.203 4.5 1.2 0.0253 6.82 0.0428 13.6 0.0549 20.5 0.00504 2.32 0.0119 4.64 0.0205 6.96 0.0121 3.33 0.0178 6.66 0.0222 9.99 0.00516 1.04 0.0103 2.09 0.0156 3.17 7.55e-5 0.961 1.51e-4 1.92 2.29e-4 2.91 0.00222 0.85 0.00444 1.7 0.00673 2.58-0.12 1.94-0.12 1.94-1.12 2.94-2.19 0.0726-4.38 0.0837-6.56 0.0625-1.8-0.0135-1.8-0.0135-3.63-0.0273-0.927-0.0116-1.85-0.0232-2.81-0.0352-0.33-0.99-0.66-1.98-1-3-0.619 0.309-1.24 0.619-1.88 0.938-4.26 2.13-7.71 2.25-12.4 2.25-0.76 0.0122-1.52 0.0245-2.3 0.0371-4.22 0.011-7.59-0.157-11.4-2.22-1.94-1.99-3.44-3.74-5-6-0.397-0.531-0.794-1.06-1.2-1.61-4.45-7.08-3.89-17.1-2.25-25 2.2-6.38 6.19-11 11.9-14.4 5.3-1.93 11-1.29 16.6-0.938zm-10.4 14.7c-3.53 5.23-4.32 10.1-3.56 16.3 0.944 2.22 0.944 2.22 2 4h2c0.33 0.66 0.66 1.32 1 2 3.72 1.24 7.14 1.68 11 1 3.22-2.53 4.7-4.11 6-8 0.427-6.51-0.188-10.8-4.62-15.9-4.57-2.16-9.61-2.35-13.8 0.562z" fill="#0D66E4"/>
<path transform="translate(692 1030)" d="m0 0c1.01-0.00773 2.02-0.0155 3.06-0.0234 3.32 0.45 5.12 1.65 7.94 3.4h4c0.461-0.49 0.923-0.98 1.4-1.48 2.33-2.2 4.09-1.85 7.23-1.77 0.982 0.0155 1.96 0.0309 2.98 0.0469 2.4 0.203 2.4 0.203 3.4 1.2 0.0932 1.53 0.117 3.07 0.114 4.61-7.55e-5 0.981-1.51e-4 1.96-2.29e-4 2.97-0.00516 1.07-0.0103 2.13-0.0156 3.23-0.00141 1.09-0.00283 2.17-0.00429 3.29-0.00562 3.48-0.0182 6.97-0.0309 10.5-0.00501 2.36-0.00958 4.71-0.0137 7.07-0.0111 5.79-0.0278 11.6-0.0488 17.4-1.58 0.0544-3.17 0.093-4.75 0.125-1.32 0.0348-1.32 0.0348-2.67 0.0703-2.69-0.204-4.28-0.83-6.58-2.2l1-2c-0.972 0.646-1.94 1.29-2.95 1.96-4.29 2.44-8.06 2.78-12.9 2.73-0.794-0.00508-1.59-0.0102-2.4-0.0154-5.91-0.234-9.74-1.45-14.1-5.67-6.21-7.62-7.52-15.3-6.63-25 1.68-7.63 4.41-12.7 11-17 0.775-0.539 1.55-1.08 2.35-1.63 3.11-1.6 5.17-1.77 8.65-1.74zm13 5.38c1.49 0.99 1.49 0.99 3 2v-2h-3zm-17 11c-2.65 4.75-3.69 8.59-3 14 1.61 3.05 3.03 5.24 5.75 7.38 4.75 1.32 8.75 1.3 13.2-0.688 2.33-1.6 2.33-1.6 3.06-4.69 0.145-1.95 0.221-3.92 0.25-5.88 0.0258-1.03 0.0516-2.06 0.0781-3.12-0.373-3.42-1.33-5.24-3.33-8.01-4.94-3.71-11.5-2.89-16 1z" fill="#0D66E4"/>
<path transform="translate(653 1031)" d="m0 0c3.72 2.67 6.22 5.25 7.3 9.84h2c-0.33 1.65-0.66 3.3-1 5-6.66 0.465-9.79 0.39-15-4-2.76-0.353-5.2-0.19-8 0-0.66 1.98-1.32 3.96-2 6 0.906 0.147 1.81 0.294 2.75 0.445 7.72 1.42 14.4 3.01 20.3 8.55 0.495 1.48 0.495 1.48 1 3h2c1.27 3.8 1.85 7.08 1 11-2.45 4.1-4.96 7.47-9.71 8.71-3.96 0.352-7.88 0.515-11.9 0.543-0.742 0.0206-1.48 0.0412-2.25 0.0625-4.62 0.0329-7.38-0.455-11.2-3.31-1.05-0.763-2.1-1.53-3.19-2.31-2.99-2.86-3.89-4.71-4.81-8.69 2.48-2.48 3.39-2.32 6.81-2.38 4.67 0.0741 6.82 1.01 10.2 4.38 2.75 0.917 4.36 1.11 7.19 1.06 1.26-0.0206 2.52-0.0412 3.81-0.0625 0.167-2.42 0.167-2.42 0-5-2.37-2.37-4.25-2.59-7.46-3.24-7.68-1.58-13.4-3.43-18.5-9.76-1.55-3.11-1.29-5.56-1-9 5.71-11.4 20-15.9 31.7-10.8zm-30.7 10.8 1 2z" fill="#0D66E4"/>
<path transform="translate(669,1051)" d="m0 0h1v9h-1v-9z" fill="#0D66E4"/>
<path transform="translate(640,1029)" d="m0 0h5v1h-5v-1z" fill="#0D66E4"/>
<path transform="translate(980,998)" d="m0 0h1v5h-1v-5z" fill="#000002"/>
<path transform="translate(708,1080)" d="m0 0 4 1z" fill="#000002"/>
<path transform="translate(663,1045)" d="m0 0c0.33 0.66 0.66 1.32 1 2-0.99-0.33-1.98-0.66-3-1 0.66-0.33 1.32-0.66 2-1z" fill="#000002"/>
<path transform="translate(890,944)" d="m0 0c3 1 3 1 3 1z" fill="#000002"/>
<path transform="translate(650,1080)" d="m0 0 2 1z" fill="#000002"/>
<path transform="translate(801,818)" d="m0 0 2 1z" fill="#000002"/>
<path transform="translate(820,815)" d="m0 0 2 1z" fill="#000002"/>
<path transform="translate(759,560)" d="m0 0 2 1z" fill="#000002"/>
</svg>
